<svg width="182" height="42" viewBox="0 0 182 42" fill="none" xmlns="http://www.w3.org/2000/svg">
<path d="M0 10C0 4.47715 4.47715 0 10 0H172C177.523 0 182 4.47715 182 10V32C182 37.5228 177.523 42 172 42H10C4.47715 42 0 37.5228 0 32V10Z" fill="white"/>
<path d="M30.8999 21.5249L33.3535 15.3359H34.9868L31.2148 24.2202C30.9609 24.7866 30.7241 25.1895 30.5044 25.4287C30.2847 25.6631 30.0259 25.8438 29.728 25.9707C29.4351 26.0928 29.0664 26.1538 28.6221 26.1538C28.2363 26.1538 27.9897 26.1318 27.8823 26.0879L27.9263 24.9746L28.5928 25.0039C29.1055 25.0039 29.4863 24.7573 29.7354 24.2642L29.9185 23.8833L30.1968 23.2314L26.564 15.3359H28.1387L30.8999 21.5249ZM41.1093 20.2432C41.1093 19.8721 40.9677 19.5791 40.6845 19.3643C40.4013 19.1445 40.0131 19.0347 39.5199 19.0347C39.0414 19.0347 38.641 19.1592 38.3188 19.4082C38.0014 19.6572 37.8427 19.9502 37.8427 20.2871H36.495C36.495 19.5986 36.7831 19.0347 37.3593 18.5952C37.9354 18.1558 38.6557 17.936 39.5199 17.936C40.4477 17.936 41.1703 18.1362 41.6879 18.5366C42.2055 18.9321 42.4643 19.4985 42.4643 20.2358C42.4643 20.5923 42.3568 20.9194 42.142 21.2173C41.9271 21.5151 41.622 21.752 41.2265 21.9277C42.1493 22.2402 42.6107 22.8555 42.6107 23.7734C42.6107 24.501 42.33 25.0771 41.7685 25.502C41.2069 25.9268 40.4574 26.1392 39.5199 26.1392C38.6068 26.1392 37.8524 25.917 37.2567 25.4727C36.6659 25.0234 36.3705 24.418 36.3705 23.6562H37.7182C37.7182 24.042 37.8891 24.374 38.2309 24.6523C38.5775 24.9258 39.0072 25.0625 39.5199 25.0625C40.0375 25.0625 40.455 24.9429 40.7724 24.7036C41.0897 24.4644 41.2484 24.1543 41.2484 23.7734C41.2484 23.3291 41.1142 23.0117 40.8456 22.8213C40.5819 22.626 40.1693 22.5283 39.6078 22.5283H38.2528V21.3857H39.725C40.6479 21.3613 41.1093 20.9805 41.1093 20.2432ZM51.4432 26H50.0882V22.6162H46.448V26H45.0857V18.0752H46.448V21.5103H50.0882V18.0752H51.4432V26ZM59.1184 26C59.0402 25.8438 58.9768 25.5654 58.9279 25.165C58.298 25.8193 57.5461 26.1465 56.6721 26.1465C55.8908 26.1465 55.2487 25.9268 54.7458 25.4873C54.2478 25.043 53.9987 24.4814 53.9987 23.8027C53.9987 22.9775 54.3112 22.3379 54.9362 21.8838C55.5661 21.4248 56.4499 21.1953 57.5876 21.1953H58.906V20.5728C58.906 20.0991 58.7644 19.7231 58.4812 19.4448C58.1979 19.1616 57.7805 19.02 57.2287 19.02C56.7453 19.02 56.34 19.1421 56.0129 19.3862C55.6857 19.6304 55.5222 19.9258 55.5222 20.2725H54.1599C54.1599 19.877 54.299 19.4961 54.5773 19.1299C54.8605 18.7588 55.2414 18.4658 55.7199 18.251C56.2033 18.0361 56.7331 17.9287 57.3093 17.9287C58.2224 17.9287 58.9377 18.1582 59.4553 18.6172C59.9729 19.0713 60.2414 19.6987 60.2609 20.4995V24.147C60.2609 24.8745 60.3537 25.4531 60.5393 25.8828V26H59.1184ZM56.8698 24.9673C57.2946 24.9673 57.6975 24.8574 58.0783 24.6377C58.4592 24.418 58.7351 24.1323 58.906 23.7808V22.1548H57.8439C56.1838 22.1548 55.3537 22.6406 55.3537 23.6123C55.3537 24.0371 55.4953 24.3691 55.7785 24.6084C56.0617 24.8477 56.4255 24.9673 56.8698 24.9673ZM68.7564 19.1738H66.0978V26H64.7428V19.1738H62.1354V18.0752H68.7564V19.1738ZM72.1543 20.8071H74.2124C75.1108 20.8169 75.8213 21.0513 76.3438 21.5103C76.8662 21.9692 77.1274 22.5918 77.1274 23.3779C77.1274 24.1689 76.8589 24.8037 76.3218 25.2822C75.7847 25.7607 75.062 26 74.1538 26H70.7993V18.0752H72.1543V20.8071ZM72.1543 21.9131V24.894H74.1685C74.6763 24.894 75.0693 24.7646 75.3477 24.5059C75.626 24.2422 75.7651 23.8833 75.7651 23.4292C75.7651 22.9897 75.6284 22.6309 75.355 22.3525C75.0864 22.0693 74.708 21.9229 74.2197 21.9131H72.1543ZM90.4344 22.1255C90.4344 23.3315 90.1585 24.3032 89.6067 25.0405C89.055 25.7778 88.3079 26.1465 87.3655 26.1465C86.4036 26.1465 85.6468 25.8413 85.095 25.231V29.0469H83.74V18.0752H84.9778L85.0438 18.9541C85.5955 18.2705 86.3621 17.9287 87.3436 17.9287C88.2957 17.9287 89.0477 18.2876 89.5994 19.0054C90.1561 19.7231 90.4344 20.7217 90.4344 22.001V22.1255ZM89.0794 21.9717C89.0794 21.0781 88.889 20.3726 88.5081 19.855C88.1272 19.3374 87.6048 19.0786 86.9407 19.0786C86.1204 19.0786 85.5052 19.4424 85.095 20.1699V23.9565C85.5003 24.6792 86.1204 25.0405 86.9554 25.0405C87.6048 25.0405 88.1199 24.7842 88.5008 24.2715C88.8865 23.7539 89.0794 22.9873 89.0794 21.9717ZM96.0515 26.1465C94.9772 26.1465 94.1032 25.7949 93.4294 25.0918C92.7556 24.3838 92.4187 23.439 92.4187 22.2573V22.0083C92.4187 21.2222 92.5676 20.5215 92.8654 19.9062C93.1682 19.2861 93.5881 18.8027 94.1252 18.4561C94.6672 18.1045 95.2531 17.9287 95.883 17.9287C96.9133 17.9287 97.7141 18.2681 98.2854 18.9468C98.8566 19.6255 99.1423 20.5972 99.1423 21.8618V22.4258H93.7736C93.7932 23.207 94.0202 23.8394 94.4548 24.3228C94.8942 24.8013 95.4509 25.0405 96.1247 25.0405C96.6032 25.0405 97.0085 24.9429 97.3405 24.7476C97.6726 24.5522 97.9631 24.2935 98.2121 23.9712L99.0397 24.6157C98.3757 25.6362 97.3796 26.1465 96.0515 26.1465ZM95.883 19.042C95.3361 19.042 94.8772 19.2422 94.5061 19.6426C94.135 20.0381 93.9055 20.5947 93.8176 21.3125H97.7873V21.21C97.7482 20.5215 97.5627 19.9893 97.2307 19.6133C96.8986 19.2324 96.4494 19.042 95.883 19.042ZM105.675 20.2432C105.675 19.8721 105.533 19.5791 105.25 19.3643C104.967 19.1445 104.579 19.0347 104.086 19.0347C103.607 19.0347 103.207 19.1592 102.884 19.4082C102.567 19.6572 102.408 19.9502 102.408 20.2871H101.061C101.061 19.5986 101.349 19.0347 101.925 18.5952C102.501 18.1558 103.221 17.936 104.086 17.936C105.013 17.936 105.736 18.1362 106.254 18.5366C106.771 18.9321 107.03 19.4985 107.03 20.2358C107.03 20.5923 106.922 20.9194 106.708 21.2173C106.493 21.5151 106.188 21.752 105.792 21.9277C106.715 22.2402 107.176 22.8555 107.176 23.7734C107.176 24.501 106.896 25.0771 106.334 25.502C105.773 25.9268 105.023 26.1392 104.086 26.1392C103.172 26.1392 102.418 25.917 101.822 25.4727C101.232 25.0234 100.936 24.418 100.936 23.6562H102.284C102.284 24.042 102.455 24.374 102.796 24.6523C103.143 24.9258 103.573 25.0625 104.086 25.0625C104.603 25.0625 105.021 24.9429 105.338 24.7036C105.655 24.4644 105.814 24.1543 105.814 23.7734C105.814 23.3291 105.68 23.0117 105.411 22.8213C105.148 22.626 104.735 22.5283 104.173 22.5283H102.818V21.3857H104.291C105.213 21.3613 105.675 20.9805 105.675 20.2432ZM112.127 24.0151L113.973 18.0752H115.423L112.237 27.2231C111.744 28.5415 110.96 29.2007 109.886 29.2007L109.629 29.1787L109.124 29.0835V27.9849L109.49 28.0142C109.949 28.0142 110.306 27.9214 110.56 27.7358C110.818 27.5503 111.031 27.2109 111.197 26.7178L111.497 25.9121L108.67 18.0752H110.149L112.127 24.0151ZM123.428 18.0752V26H122.065V19.1958H119.37L119.209 22.1621C119.121 23.5244 118.892 24.4985 118.52 25.0845C118.154 25.6704 117.571 25.9756 116.77 26H116.228V24.8062L116.616 24.7769C117.056 24.728 117.371 24.4741 117.561 24.0151C117.751 23.5562 117.873 22.7065 117.927 21.4663L118.074 18.0752H123.428ZM127.682 20.8071H129.741C130.639 20.8169 131.349 21.0513 131.872 21.5103C132.394 21.9692 132.656 22.5918 132.656 23.3779C132.656 24.1689 132.387 24.8037 131.85 25.2822C131.313 25.7607 130.59 26 129.682 26H126.327V18.0752H127.682V20.8071ZM127.682 21.9131V24.894H129.697C130.204 24.894 130.597 24.7646 130.876 24.5059C131.154 24.2422 131.293 23.8833 131.293 23.4292C131.293 22.9897 131.157 22.6309 130.883 22.3525C130.615 22.0693 130.236 21.9229 129.748 21.9131H127.682ZM140.323 19.1738H137.665V26H136.31V19.1738H133.702V18.0752H140.323V19.1738ZM147.017 26C146.939 25.8438 146.876 25.5654 146.827 25.165C146.197 25.8193 145.445 26.1465 144.571 26.1465C143.79 26.1465 143.148 25.9268 142.645 25.4873C142.147 25.043 141.898 24.4814 141.898 23.8027C141.898 22.9775 142.21 22.3379 142.835 21.8838C143.465 21.4248 144.349 21.1953 145.486 21.1953H146.805V20.5728C146.805 20.0991 146.663 19.7231 146.38 19.4448C146.097 19.1616 145.679 19.02 145.128 19.02C144.644 19.02 144.239 19.1421 143.912 19.3862C143.585 19.6304 143.421 19.9258 143.421 20.2725H142.059C142.059 19.877 142.198 19.4961 142.476 19.1299C142.759 18.7588 143.14 18.4658 143.619 18.251C144.102 18.0361 144.632 17.9287 145.208 17.9287C146.121 17.9287 146.837 18.1582 147.354 18.6172C147.872 19.0713 148.14 19.6987 148.16 20.4995V24.147C148.16 24.8745 148.253 25.4531 148.438 25.8828V26H147.017ZM144.769 24.9673C145.193 24.9673 145.596 24.8574 145.977 24.6377C146.358 24.418 146.634 24.1323 146.805 23.7808V22.1548H145.743C144.083 22.1548 143.253 22.6406 143.253 23.6123C143.253 24.0371 143.394 24.3691 143.677 24.6084C143.961 24.8477 144.324 24.9673 144.769 24.9673ZM156.655 19.1738H153.997V26H152.642V19.1738H150.034V18.0752H156.655V19.1738Z" fill="#5C5252"/>
</svg>
