<svg width="182" height="42" viewBox="0 0 182 42" fill="none" xmlns="http://www.w3.org/2000/svg">
<path d="M0 10C0 4.47715 4.47715 0 10 0H172C177.523 0 182 4.47715 182 10V32C182 37.5228 177.523 42 172 42H10C4.47715 42 0 37.5228 0 32V10Z" fill="white"/>
<path d="M26.082 22.6162C25.9502 23.7441 25.5327 24.6157 24.8296 25.231C24.1313 25.8413 23.2012 26.1465 22.0391 26.1465C20.7793 26.1465 19.7686 25.6948 19.0068 24.7915C18.25 23.8882 17.8716 22.6797 17.8716 21.166V20.1406C17.8716 19.1494 18.0474 18.2778 18.3989 17.5259C18.7554 16.7739 19.2583 16.1978 19.9077 15.7974C20.5571 15.3921 21.3091 15.1895 22.1636 15.1895C23.2964 15.1895 24.2046 15.5068 24.8882 16.1416C25.5718 16.7715 25.9697 17.6455 26.082 18.7637H24.6685C24.5464 17.9141 24.2803 17.2988 23.8701 16.918C23.4648 16.5371 22.896 16.3467 22.1636 16.3467C21.2651 16.3467 20.5596 16.6787 20.0469 17.3428C19.5391 18.0068 19.2852 18.9517 19.2852 20.1772V21.21C19.2852 22.3672 19.5269 23.2876 20.0103 23.9712C20.4937 24.6548 21.1699 24.9966 22.0391 24.9966C22.8203 24.9966 23.4185 24.8208 23.8335 24.4692C24.2534 24.1128 24.5317 23.4951 24.6685 22.6162H26.082ZM34.8925 18.0752V26H33.5302V19.1958H30.8349L30.6737 22.1621C30.5858 23.5244 30.3563 24.4985 29.9853 25.0845C29.619 25.6704 29.0355 25.9756 28.2348 26H27.6928V24.8062L28.081 24.7769C28.5204 24.728 28.8354 24.4741 29.0258 24.0151C29.2162 23.5562 29.3383 22.7065 29.392 21.4663L29.5385 18.0752H34.8925ZM40.9563 26.1465C39.8821 26.1465 39.0081 25.7949 38.3343 25.0918C37.6604 24.3838 37.3235 23.439 37.3235 22.2573V22.0083C37.3235 21.2222 37.4725 20.5215 37.7703 19.9062C38.073 19.2861 38.493 18.8027 39.0301 18.4561C39.5721 18.1045 40.158 17.9287 40.7879 17.9287C41.8182 17.9287 42.6189 18.2681 43.1902 18.9468C43.7615 19.6255 44.0472 20.5972 44.0472 21.8618V22.4258H38.6785C38.698 23.207 38.9251 23.8394 39.3597 24.3228C39.7991 24.8013 40.3558 25.0405 41.0296 25.0405C41.5081 25.0405 41.9134 24.9429 42.2454 24.7476C42.5774 24.5522 42.868 24.2935 43.117 23.9712L43.9446 24.6157C43.2806 25.6362 42.2845 26.1465 40.9563 26.1465ZM40.7879 19.042C40.241 19.042 39.782 19.2422 39.4109 19.6426C39.0398 20.0381 38.8104 20.5947 38.7225 21.3125H42.6922V21.21C42.6531 20.5215 42.4676 19.9893 42.1355 19.6133C41.8035 19.2324 41.3543 19.042 40.7879 19.042ZM46.156 24.894L46.6247 24.3154C47.1521 23.6318 47.4523 22.6064 47.5256 21.2393L47.6501 18.0752H52.7551V24.894H53.7731V28.3291H52.4182V26H46.8884V28.3291H45.5334L45.5407 24.894H46.156ZM47.76 24.894H51.4001V19.3276H48.9611L48.8806 21.2173C48.7976 22.7944 48.424 24.02 47.76 24.894ZM58.4674 24.0151L60.3131 18.0752H61.7633L58.5772 27.2231C58.0841 28.5415 57.3004 29.2007 56.2262 29.2007L55.9698 29.1787L55.4645 29.0835V27.9849L55.8307 28.0142C56.2896 28.0142 56.6461 27.9214 56.9 27.7358C57.1588 27.5503 57.3712 27.2109 57.5372 26.7178L57.8375 25.9121L55.0104 18.0752H56.4898L58.4674 24.0151ZM65.0586 21.437H66.9629C67.0654 20.3823 67.439 19.5352 68.0835 18.8955C68.7329 18.251 69.5508 17.9287 70.5371 17.9287C71.5723 17.9287 72.4194 18.2778 73.0786 18.9761C73.7378 19.6743 74.0942 20.5825 74.1479 21.7007L74.1553 22.1255C74.1553 22.897 74.0039 23.5928 73.7012 24.2129C73.3984 24.833 72.9736 25.3115 72.4268 25.6484C71.8799 25.9805 71.2549 26.1465 70.5518 26.1465C69.5312 26.1465 68.6963 25.8145 68.0469 25.1504C67.3975 24.4814 67.0337 23.6147 66.9556 22.5503H65.0586V26H63.7036V18.0752H65.0586V21.437ZM68.2959 22.1255C68.2959 23.0044 68.4985 23.71 68.9038 24.2422C69.314 24.7744 69.8633 25.0405 70.5518 25.0405C71.2402 25.0405 71.7847 24.7695 72.1851 24.2275C72.5903 23.6855 72.793 22.9312 72.793 21.9644C72.793 21.1001 72.5879 20.397 72.1777 19.855C71.7676 19.313 71.2207 19.042 70.5371 19.042C69.8633 19.042 69.3213 19.3081 68.9111 19.8403C68.501 20.3726 68.2959 21.1343 68.2959 22.1255ZM77.8241 18.0752V24.894H80.7245V18.0752H82.0795V24.894H84.9726V18.0752H86.3349V24.894H87.4481L87.3163 28.3511H86.1005V26H76.4618V18.0752H77.8241ZM94.5594 18.0752H95.9144V26H94.5594V20.2212L90.9046 26H89.5496V18.0752H90.9046V23.8613L94.5594 18.0752ZM103.817 18.0752H105.172V26H103.817V20.2212L100.162 26H98.8068V18.0752H100.162V23.8613L103.817 18.0752ZM104.183 15.1895C104.183 15.7803 103.98 16.2563 103.575 16.6177C103.175 16.9741 102.647 17.1523 101.993 17.1523C101.339 17.1523 100.809 16.9717 100.404 16.6104C99.9982 16.249 99.7956 15.7754 99.7956 15.1895H100.902C100.902 15.5312 100.994 15.7998 101.18 15.9951C101.365 16.1855 101.636 16.2808 101.993 16.2808C102.335 16.2808 102.601 16.1855 102.791 15.9951C102.987 15.8047 103.084 15.5361 103.084 15.1895H104.183ZM112.392 26V18.0752H115.483C116.538 18.0752 117.346 18.2607 117.907 18.6318C118.474 18.998 118.757 19.5376 118.757 20.2505C118.757 20.6167 118.647 20.9487 118.427 21.2466C118.208 21.5396 117.883 21.7642 117.453 21.9204C117.932 22.0327 118.315 22.2524 118.603 22.5796C118.896 22.9067 119.042 23.2974 119.042 23.7515C119.042 24.479 118.774 25.0356 118.237 25.4214C117.705 25.8071 116.95 26 115.974 26H112.392ZM113.747 22.521V24.9087H115.988C116.555 24.9087 116.977 24.8037 117.255 24.5938C117.539 24.3838 117.68 24.0884 117.68 23.7075C117.68 22.9165 117.099 22.521 115.937 22.521H113.747ZM113.747 21.437H115.498C116.767 21.437 117.402 21.0659 117.402 20.3237C117.402 19.5815 116.801 19.1982 115.6 19.1738H113.747V21.437ZM121.078 21.9644C121.078 21.188 121.229 20.4897 121.532 19.8696C121.84 19.2495 122.265 18.771 122.807 18.4341C123.353 18.0972 123.976 17.9287 124.674 17.9287C125.753 17.9287 126.625 18.3022 127.289 19.0493C127.958 19.7964 128.292 20.79 128.292 22.0303V22.1255C128.292 22.897 128.143 23.5903 127.846 24.2056C127.553 24.8159 127.13 25.292 126.579 25.6338C126.032 25.9756 125.402 26.1465 124.689 26.1465C123.615 26.1465 122.743 25.7729 122.074 25.0259C121.41 24.2788 121.078 23.29 121.078 22.0596V21.9644ZM122.44 22.1255C122.44 23.0044 122.643 23.71 123.048 24.2422C123.458 24.7744 124.005 25.0405 124.689 25.0405C125.377 25.0405 125.924 24.772 126.329 24.2349C126.735 23.6929 126.937 22.936 126.937 21.9644C126.937 21.0952 126.73 20.3921 126.315 19.855C125.905 19.313 125.358 19.042 124.674 19.042C124.005 19.042 123.466 19.3081 123.056 19.8403C122.645 20.3726 122.44 21.1343 122.44 22.1255ZM137.074 26H135.719V19.1958H132.071V26H130.709V18.0752H137.074V26ZM146.543 22.1255C146.543 23.3315 146.267 24.3032 145.716 25.0405C145.164 25.7778 144.417 26.1465 143.474 26.1465C142.512 26.1465 141.756 25.8413 141.204 25.231V29.0469H139.849V18.0752H141.087L141.153 18.9541C141.704 18.2705 142.471 17.9287 143.452 17.9287C144.404 17.9287 145.156 18.2876 145.708 19.0054C146.265 19.7231 146.543 20.7217 146.543 22.001V22.1255ZM145.188 21.9717C145.188 21.0781 144.998 20.3726 144.617 19.855C144.236 19.3374 143.714 19.0786 143.05 19.0786C142.229 19.0786 141.614 19.4424 141.204 20.1699V23.9565C141.609 24.6792 142.229 25.0405 143.064 25.0405C143.714 25.0405 144.229 24.7842 144.61 24.2715C144.995 23.7539 145.188 22.9873 145.188 21.9717ZM148.513 21.9644C148.513 21.188 148.664 20.4897 148.967 19.8696C149.275 19.2495 149.699 18.771 150.241 18.4341C150.788 18.0972 151.411 17.9287 152.109 17.9287C153.188 17.9287 154.06 18.3022 154.724 19.0493C155.393 19.7964 155.727 20.79 155.727 22.0303V22.1255C155.727 22.897 155.578 23.5903 155.28 24.2056C154.987 24.8159 154.565 25.292 154.013 25.6338C153.466 25.9756 152.837 26.1465 152.124 26.1465C151.049 26.1465 150.178 25.7729 149.509 25.0259C148.845 24.2788 148.513 23.29 148.513 22.0596V21.9644ZM149.875 22.1255C149.875 23.0044 150.078 23.71 150.483 24.2422C150.893 24.7744 151.44 25.0405 152.124 25.0405C152.812 25.0405 153.359 24.772 153.764 24.2349C154.17 23.6929 154.372 22.936 154.372 21.9644C154.372 21.0952 154.165 20.3921 153.75 19.855C153.339 19.313 152.793 19.042 152.109 19.042C151.44 19.042 150.9 19.3081 150.49 19.8403C150.08 20.3726 149.875 21.1343 149.875 22.1255ZM161.205 25.0405C161.688 25.0405 162.111 24.894 162.472 24.6011C162.833 24.3081 163.034 23.9419 163.073 23.5024H164.354C164.33 23.9565 164.174 24.3887 163.886 24.7988C163.598 25.209 163.212 25.5361 162.729 25.7803C162.25 26.0244 161.742 26.1465 161.205 26.1465C160.126 26.1465 159.267 25.7876 158.627 25.0698C157.992 24.3472 157.675 23.3608 157.675 22.1108V21.8838C157.675 21.1123 157.816 20.4263 158.1 19.8257C158.383 19.2251 158.788 18.7588 159.315 18.4268C159.848 18.0947 160.475 17.9287 161.198 17.9287C162.086 17.9287 162.824 18.1948 163.41 18.7271C164 19.2593 164.315 19.9502 164.354 20.7998H163.073C163.034 20.2871 162.838 19.8672 162.487 19.54C162.14 19.208 161.71 19.042 161.198 19.042C160.509 19.042 159.975 19.291 159.594 19.7891C159.218 20.2822 159.03 20.9976 159.03 21.9351V22.1914C159.03 23.1045 159.218 23.8076 159.594 24.3008C159.97 24.7939 160.507 25.0405 161.205 25.0405Z" fill="#5C5252"/>
</svg>
